<svg width="9" height="10" viewBox="0 0 9 10" xmlns="http://www.w3.org/2000/svg">
<path d="M7.85714 0H6.42857C6.03357 0 5.71429 0.0342857 5.71429 0.428571V9.57143C5.71429 9.96571 6.03357 10 6.42857 10H7.85714C8.25214 10 8.57143 9.96571 8.57143 9.57143V0.428571C8.57143 0.0342857 8.25214 0 7.85714 0V0ZM2.14286 0H0.714286C0.319286 0 0 0.0342857 0 0.428571V9.57143C0 9.96571 0.319286 10 0.714286 10H2.14286C2.53786 10 2.85714 9.96571 2.85714 9.57143V0.428571C2.85714 0.0342857 2.53786 0 2.14286 0V0Z" />
</svg>
