<svg width="8" height="8" viewBox="0 0 8 8" fill="none" xmlns="http://www.w3.org/2000/svg">
<path d="M7.295 0.705C6.90564 0.315639 6.27436 0.315639 5.885 0.705L4 2.59L2.115 0.705C1.72564 0.31564 1.09436 0.315639 0.705 0.705C0.315639 1.09436 0.315639 1.72564 0.705 2.115L2.59 4L0.705 5.885C0.31564 6.27436 0.315639 6.90564 0.705 7.295C1.09436 7.68436 1.72564 7.68436 2.115 7.295L4 5.41L5.885 7.295C6.27436 7.68436 6.90564 7.68436 7.295 7.295C7.68436 6.90564 7.68436 6.27436 7.295 5.885L5.41 4L7.295 2.115C7.68436 1.72564 7.68436 1.09436 7.295 0.705Z" fill="#004A81"/>
<path d="M7.295 0.705C6.90564 0.315639 6.27436 0.315639 5.885 0.705L4 2.59L2.115 0.705C1.72564 0.31564 1.09436 0.315639 0.705 0.705C0.315639 1.09436 0.315639 1.72564 0.705 2.115L2.59 4L0.705 5.885C0.31564 6.27436 0.315639 6.90564 0.705 7.295C1.09436 7.68436 1.72564 7.68436 2.115 7.295L4 5.41L5.885 7.295C6.27436 7.68436 6.90564 7.68436 7.295 7.295C7.68436 6.90564 7.68436 6.27436 7.295 5.885L5.41 4L7.295 2.115C7.68436 1.72564 7.68436 1.09436 7.295 0.705Z" fill="#004A81"/>
</svg>
