<svg width="12" height="13" viewBox="0 0 12 13" fill="none" xmlns="http://www.w3.org/2000/svg">
<path fill-rule="evenodd" clip-rule="evenodd" d="M0.96967 1.00742C1.26256 0.703257 1.73744 0.703257 2.03033 1.00742L6 5.12977L9.96967 1.00742C10.2626 0.703257 10.7374 0.703257 11.0303 1.00742C11.3232 1.31157 11.3232 1.80471 11.0303 2.10887L7.06066 6.23122L11.0303 10.3536C11.3232 10.6577 11.3232 11.1509 11.0303 11.455C10.7374 11.7592 10.2626 11.7592 9.96967 11.455L6 7.33267L2.03033 11.455C1.73744 11.7592 1.26256 11.7592 0.96967 11.455C0.676777 11.1509 0.676777 10.6577 0.96967 10.3536L4.93934 6.23122L0.96967 2.10887C0.676777 1.80471 0.676777 1.31157 0.96967 1.00742Z" fill="#141E3C"/>
</svg>
