<svg width="15" height="16" viewBox="0 0 15 16" fill="none" xmlns="http://www.w3.org/2000/svg">
<path fill-rule="evenodd" clip-rule="evenodd" d="M0.313814 0.325884C0.732233 -0.108628 1.41062 -0.108628 1.82904 0.325884L7.5 6.21495L13.171 0.325884C13.5894 -0.108628 14.2678 -0.108628 14.6862 0.325884C15.1046 0.760396 15.1046 1.46488 14.6862 1.89939L9.01523 7.78846L14.6862 13.6775C15.1046 14.112 15.1046 14.8165 14.6862 15.251C14.2678 15.6856 13.5894 15.6856 13.171 15.251L7.5 9.36197L1.82904 15.251C1.41062 15.6856 0.732233 15.6856 0.313814 15.251C-0.104605 14.8165 -0.104605 14.112 0.313814 13.6775L5.98477 7.78846L0.313814 1.89939C-0.104605 1.46488 -0.104605 0.760396 0.313814 0.325884Z" fill="#141E3C"/>
</svg>
