<svg width="18" height="20" viewBox="0 0 18 20" fill="none" xmlns="http://www.w3.org/2000/svg">
<path fill-rule="evenodd" clip-rule="evenodd" d="M11.3126 19.9907H0.999485C0.447485 19.9907 0 19.5432 0 18.9912V0.999537C0 0.447508 0.447485 0 0.999485 0H16.9912C17.5432 0 17.9907 0.447508 17.9907 0.999536V13.3123C18.0031 13.4026 18.0031 13.4944 17.9907 13.5847C17.9907 13.8081 17.8985 14.0215 17.7359 14.1746L11.7274 19.8299C11.6139 19.9368 11.4671 20.0119 11.3126 19.9907ZM1.99897 1.99907V17.9917H9.99485V12.994C9.99485 12.4419 10.4423 11.9944 10.9943 11.9944H15.9918V1.99907H1.99897ZM11.9938 17.0419L15.0421 13.9935H11.9938V17.0419Z" />
</svg>
