<svg version="1.1" xmlns="http://www.w3.org/2000/svg" width="640" height="640" viewBox="0 0 640 640">
<path d="M551.136 224.96c-50.688-117.952-132.224-207.68-173.472-190.944-70.048 28.512 41.728 165.248-302.304 305.056-29.728 12.128-37.248 60.416-24.8 89.344 12.416 28.864 53.056 57.632 82.784 45.568 5.152-2.112 24.032-8.192 24.032-8.192 21.216 28.512 43.424 11.616 51.328 29.696 9.472 21.76 30.048 69.056 37.056 85.12s22.88 30.944 34.4 26.56c11.488-4.384 50.624-19.264 65.6-24.928 14.976-5.696 18.528-19.072 13.952-29.568-4.928-11.36-25.152-14.688-30.944-27.936-5.76-13.184-24.608-55.616-30.016-68.992-7.36-18.176 8.288-32.992 31.040-35.328 156.608-16.384 185.888 80.384 239.2 58.688 41.184-16.8 32.8-136.288-17.856-254.144zM533.504 416.192c-9.184 3.68-70.816-44.864-110.176-136.544-39.392-91.616-34.432-175.36-25.28-179.104 9.152-3.68 69.28 54.944 108.64 146.56 39.392 91.616 35.968 165.344 26.816 169.088z" fill="#565d66"></path>
</svg>
