<svg width="14" height="14" viewBox="0 0 14 14" fill="none" xmlns="http://www.w3.org/2000/svg">
<path fill-rule="evenodd" clip-rule="evenodd" d="M1.04289 1.04288C1.43342 0.652354 2.06658 0.652354 2.45711 1.04288L7 5.58577L11.5429 1.04288C11.9334 0.652354 12.5666 0.652354 12.9571 1.04288C13.3476 1.4334 13.3476 2.06657 12.9571 2.45709L8.41421 6.99998L12.9571 11.5429C13.3476 11.9334 13.3476 12.5666 12.9571 12.9571C12.5666 13.3476 11.9334 13.3476 11.5429 12.9571L7 8.4142L2.45711 12.9571C2.06658 13.3476 1.43342 13.3476 1.04289 12.9571C0.652369 12.5666 0.652369 11.9334 1.04289 11.5429L5.58579 6.99998L1.04289 2.45709C0.652369 2.06657 0.652369 1.4334 1.04289 1.04288Z" />
</svg>
