<svg width="14" height="18" viewBox="0 0 14 18" xmlns="http://www.w3.org/2000/svg">
<path d="M6.57391 12.4817C6.69565 12.4817 6.81739 12.4817 6.93913 12.4817C7.91304 12.4817 8.88696 12.1658 9.61739 11.5865C10.4696 10.9546 10.8957 10.0068 10.8957 9.05889V4.31957C10.9565 2.42384 9.1913 0.896729 7 0.896729C4.8087 0.896729 3.04348 2.42384 3.04348 4.31957V8.95357C3.04348 10.744 4.62609 12.2711 6.57391 12.4817Z" />
<path d="M14 9.05889V7.47912C14 7.05784 13.5739 6.68923 13.087 6.68923C12.6 6.68923 12.1739 7.05784 12.1739 7.47912V9.05889C12.1739 11.5339 9.86087 13.5349 7 13.5349C4.13913 13.5349 1.82609 11.5339 1.82609 9.05889V7.47912C1.82609 7.05784 1.4 6.68923 0.913043 6.68923C0.426087 6.68923 0 7.05784 0 7.47912V9.05889C0 12.1131 2.67826 14.6934 6.08696 15.062V16.1679H2.49423C2.05799 16.1679 1.70435 16.5215 1.70435 16.9578V16.9578C1.70435 17.394 2.05799 17.7476 2.49423 17.7476H11.5058C11.942 17.7476 12.2957 17.394 12.2957 16.9578V16.9578C12.2957 16.5215 11.942 16.1679 11.5058 16.1679H7.91304V15.062C11.3217 14.6934 14 12.1131 14 9.05889Z" />
</svg>
