<svg class="fill-current" viewBox="0 0 50 50" xmlns="http://www.w3.org/2000/svg">
<path fill-rule="evenodd" clip-rule="evenodd" d="M25 -2.18557e-06C11.1929 -3.39263e-06 3.39263e-06 11.1929 2.18557e-06 25C9.78513e-07 38.8071 11.1929 50 25 50C38.8071 50 50 38.8071 50 25C50 11.1929 38.8071 -9.78513e-07 25 -2.18557e-06ZM30.7774 25.8993C31.6108 25.0659 31.6108 23.7146 30.7774 22.8812L24.9567 17.0605C24.1232 16.2271 22.772 16.2271 21.9385 17.0605C21.1051 17.8939 21.1051 19.2452 21.9385 20.0786L26.2502 24.3903L21.9385 28.7019C21.1051 29.5353 21.1051 30.8866 21.9385 31.72C22.772 32.5535 24.1232 32.5535 24.9567 31.72L30.7774 25.8993Z" />
</svg>
