<svg viewBox="0 0 50 50" xmlns="http://www.w3.org/2000/svg">
<path fill-rule="evenodd" clip-rule="evenodd" d="M25 50C38.8071 50 50 38.8071 50 25C50 11.1929 38.8071 0 25 0C11.1929 0 0 11.1929 0 25C0 38.8071 11.1929 50 25 50ZM19.2226 24.1007C18.3892 24.9341 18.3892 26.2854 19.2226 27.1188L25.0433 32.9395C25.8768 33.7729 27.228 33.7729 28.0615 32.9395C28.8949 32.1061 28.8949 30.7548 28.0615 29.9214L23.7498 25.6097L28.0615 21.2981C28.8949 20.4647 28.8949 19.1134 28.0615 18.28C27.228 17.4465 25.8768 17.4465 25.0433 18.28L19.2226 24.1007Z" />
</svg>
