<svg width="20" height="18" viewBox="0 0 20 18" xmlns="http://www.w3.org/2000/svg">
<path d="M0 1.83289C0 1.31586 0.447715 0.896729 1 0.896729H19C19.5523 0.896729 20 1.31586 20 1.83289V12.1307C20 12.6477 19.5523 13.0668 19 13.0668H1C0.447716 13.0668 0 12.6477 0 12.1307V1.83289Z" />
<path d="M8 13.0668H12V15.8753H8V13.0668Z" />
<path d="M16 15.8753C16.5523 15.8753 17 16.2945 17 16.8115C17 17.3285 16.5523 17.7476 16 17.7476H4C3.44772 17.7476 3 17.3285 3 16.8115C3 16.2945 3.44772 15.8753 4 15.8753L16 15.8753Z" />
</svg>
