<svg class="fill-current" width="295" height="18" viewBox="0 0 295 18" xmlns="http://www.w3.org/2000/svg">
<path fill-rule="evenodd" clip-rule="evenodd" d="M11.2145 0.3H12.8734V17.7H11.5453L1.66012 3.7296V17.7H0V0.2988H1.30456L11.2145 14.2956V0.3ZM22.1961 0.3H23.7843L29.57 17.7012H27.6014L26.3451 13.7484H19.0431L17.6208 17.7012H15.7959L22.1961 0.2988V0.3ZM22.9072 2.8836L19.6365 12.0576H25.8235L22.932 2.8836H22.9072ZM29.5724 0.3H39.9098V1.9896H35.6195V17.7024H33.864V1.9884H29.5724V0.3ZM42.9488 17.7024V0.2988H44.7031V17.7012H42.9488V17.7024ZM57.1503 18C52.3632 18 48.6886 13.9728 48.6886 9.0012C48.6886 4.0296 52.3644 0 57.1503 0C61.9398 0 65.6144 4.0284 65.6144 9C65.6144 13.9716 61.9411 18 57.1515 18H57.1503ZM57.1503 1.692C53.3568 1.692 50.5593 4.8984 50.5593 9.0012C50.5593 13.1028 53.3568 16.3104 57.1503 16.3104C60.945 16.3104 63.7437 13.1028 63.7437 9.0024C63.7437 4.8984 60.9438 1.692 57.1503 1.692ZM81.1514 17.7024L71.265 3.7296V17.7H69.6049V0.2988H70.9094L80.8206 14.2956V0.3H82.4782V17.7024H81.1526H81.1514ZM91.8022 0.2988H93.3904L99.1761 17.7012H97.2087L95.9512 13.7484H88.6492L87.2269 17.7012H85.3995L91.8034 0.2988H91.8022ZM89.2414 12.0588H95.4284L92.5368 2.8836H92.5133L89.2426 12.0576L89.2414 12.0588ZM102.097 17.7V0.2988H103.852V16.0104H111.248V17.7012H102.097V17.7ZM120.086 10.74H116.845V17.7H114.092V0.2976H120.086C123.326 0.2976 127.168 1.6896 127.168 5.4948C127.168 9.348 123.353 10.74 120.086 10.74ZM119.942 2.436H116.845V8.6004H119.369C122.15 8.6004 124.244 7.8048 124.244 5.568C124.244 3.6036 122.495 2.436 119.942 2.436ZM146.145 9.5208C146.145 14.9904 143.823 17.9988 138.318 17.9988C132.929 17.9988 130.607 14.9904 130.607 9.5208V0.2976H133.357V10.1436C133.357 13.9956 135.279 15.8616 138.375 15.8616C141.472 15.8616 143.392 13.9968 143.392 10.1436V0.2976H146.145V9.522V9.5208ZM151.446 0.2964H156.235C158.126 0.2964 160.106 0.57 161.568 1.3908C162.972 2.1864 163.69 3.4788 163.69 4.9968C163.69 6.6372 162.829 7.8552 160.622 8.6004C163.201 9.2724 164.52 10.6884 164.52 12.7524C164.52 14.7168 163.259 16.2588 161.252 17.004C159.732 17.5512 157.783 17.7 155.977 17.7H151.446V0.2976V0.2964ZM157.41 9.8436H154.199V15.612H155.719C157.382 15.612 158.844 15.5376 159.962 15.09C160.937 14.6916 161.597 13.9704 161.597 12.7776C161.597 11.0376 160.133 9.8436 157.41 9.8436ZM159.789 3.0324C158.758 2.46 157.295 2.3856 155.576 2.3856H154.199V7.7556H156.119C159.13 7.7556 160.938 6.9348 160.938 5.1204C160.938 4.0524 160.506 3.4296 159.789 3.0324ZM168.963 17.7V0.2988H171.716V15.5628H180.432V17.7012H168.963V17.7ZM183.297 17.7V0.2988H186.049V17.7012H183.296L183.297 17.7ZM201.271 18C195.28 18 190.49 14.4948 190.49 9C190.49 3.8532 195.337 0 201.271 0C203.249 0 205.083 0.498 206.661 1.344L205.372 3.1824C204.118 2.50349 202.707 2.14424 201.271 2.1384C196.742 2.1384 193.415 5.022 193.415 9C193.415 13.2264 196.685 15.8616 201.271 15.8616C202.848 15.8616 204.31 15.4632 205.715 14.6436L207.177 16.4076C205.398 17.455 203.354 18.006 201.272 18H201.271ZM222.244 17.7012H219.505L214.029 4.9476V17.7012H210.187V0.2988H215.854L220.903 12.4308L226.139 0.3H231.697V17.7024H227.856V4.9968L222.244 17.7012ZM235.85 17.7012V0.2988H247.907V3.306H239.692V7.236H247.907V10.2444H239.692V14.694H247.907V17.7024H235.85V17.7012ZM251.421 0.2988H256.899C261.759 0.2988 267.211 2.6352 267.211 8.9256C267.211 15.3648 261.813 17.7024 256.658 17.7024H251.421V0.2988ZM255.262 14.6928H255.692C260.096 14.6928 263.102 13.2504 263.102 9.1488C263.102 5.3208 260.66 3.3072 256.443 3.3072H255.262V14.6928ZM270.614 17.7012V0.2988H274.455V17.7012H270.614ZM290.428 17.7012L289.22 14.4696H282.534L281.271 17.7012H277.002L284.681 0.2988H287.795L294.857 17.7012H290.427H290.428ZM283.661 11.5608H288.146L285.971 5.718H285.945L283.661 11.5608Z" />
</svg>
